# Blender v2.79 (sub 0) OBJ File: ''
# www.blender.org
o Cube
v 1.000000 -1.000000 -1.000000
v 1.000000 -1.000000 1.000000
v -1.000000 -1.000000 1.000000
v -1.000000 -1.000000 -1.000000
v 1.000000 1.000000 -0.999999
v 0.999999 1.000000 1.000001
v -1.000000 1.000000 1.000000
v -1.000000 1.000000 -1.000000
v 0.999998 -1.000001 8.000000
v -1.000002 -1.000001 8.000000
v 0.999997 0.999999 8.000001
v -1.000002 0.999999 8.000000
v 8.000000 -1.000000 -0.999998
v 8.000000 -1.000000 1.000002
v 8.000000 1.000000 -0.999997
v 8.000000 1.000000 1.000003
v 1.000000 8.000000 -0.999999
v 0.999999 8.000000 1.000001
v -1.000000 8.000000 -1.000000
v -1.000000 8.000000 1.000000
vt 0.800000 0.388889
vt 0.900000 0.500000
vt 0.800000 0.500000
vt 0.350000 0.111111
vt 0.000000 0.000000
vt 0.350000 0.000000
vt 0.350000 0.611111
vt 0.000000 0.500000
vt 0.350000 0.500000
vt 0.900000 0.000000
vt 0.900000 0.388889
vt 0.450000 0.111111
vt 0.450000 0.000000
vt 0.450000 0.611111
vt 0.550000 0.888889
vt 0.650000 1.000000
vt 0.550000 1.000000
vt 0.850000 0.888889
vt 0.750000 0.500000
vt 0.850000 0.500000
vt 0.350000 0.500000
vt 0.450000 0.888889
vt 0.550000 0.500000
vt 0.550000 0.888889
vt 0.550000 0.888889
vt 0.450000 1.000000
vt 0.450000 0.888889
vt 0.450000 0.388889
vt 0.550000 0.888889
vt 0.650000 0.500000
vt 0.650000 0.888889
vt 0.950000 0.500000
vt 0.850000 0.888889
vt 0.850000 0.500000
vt 0.650000 0.888889
vt 0.750000 1.000000
vt 0.650000 1.000000
vt 0.350000 1.000000
vt 0.650000 0.888889
vt 0.750000 0.500000
vt 0.750000 0.888889
vt 1.000000 0.000000
vt 0.900000 0.388889
vt 0.900000 0.000000
vt 0.000000 0.111111
vt 0.000000 0.611111
vt 0.800000 0.000000
vt 0.450000 0.500000
vt 0.650000 0.888889
vt 0.450000 0.500000
vt 0.450000 0.500000
vt 0.550000 1.000000
vt 0.450000 0.500000
vt 0.550000 0.500000
vt 0.950000 0.888889
vt 0.750000 0.888889
vt 0.450000 1.000000
vt 0.650000 0.500000
vt 1.000000 0.388889
vn 0.0000 -1.0000 0.0000
vn -1.0000 0.0000 -0.0000
vn 0.0000 0.0000 -1.0000
vn 0.0000 -0.0000 1.0000
vn -0.0000 1.0000 0.0000
vn 1.0000 0.0000 0.0000
s off
f 2/1/1 4/2/1 1/3/1
f 7/4/2 19/5/2 8/6/2
f 5/7/3 13/8/3 1/9/3
f 2/1/1 10/10/1 3/11/1
f 3/12/2 8/6/2 4/13/2
f 1/9/3 8/14/3 5/7/3
f 11/15/4 10/16/4 9/17/4
f 6/18/5 12/19/5 11/20/5
f 3/12/2 12/21/2 7/4/2
f 6/22/6 9/23/6 2/24/6
f 15/25/6 14/26/6 13/27/6
f 1/3/1 14/28/1 2/1/1
f 6/29/5 15/30/5 5/31/5
f 2/32/4 16/33/4 6/34/4
f 19/35/5 18/36/5 17/37/5
f 8/14/3 17/38/3 5/7/3
f 6/39/4 20/40/4 7/41/4
f 5/42/6 18/43/6 6/44/6
f 2/1/1 3/11/1 4/2/1
f 7/4/2 20/45/2 19/5/2
f 5/7/3 15/46/3 13/8/3
f 2/1/1 9/47/1 10/10/1
f 3/12/2 7/4/2 8/6/2
f 1/9/3 4/48/3 8/14/3
f 11/15/4 12/49/4 10/16/4
f 6/18/5 7/41/5 12/19/5
f 3/12/2 10/50/2 12/21/2
f 6/22/6 11/51/6 9/23/6
f 15/25/6 16/52/6 14/26/6
f 1/3/1 13/53/1 14/28/1
f 6/29/5 16/54/5 15/30/5
f 2/32/4 14/55/4 16/33/4
f 19/35/5 20/56/5 18/36/5
f 8/14/3 19/57/3 17/38/3
f 6/39/4 18/58/4 20/40/4
f 5/42/6 17/59/6 18/43/6
